<?xml version="1.0" encoding="UTF-8" standalone="no"?>
<svg
   xmlns:dc="http://purl.org/dc/elements/1.1/"
   xmlns:cc="http://creativecommons.org/ns#"
   xmlns:rdf="http://www.w3.org/1999/02/22-rdf-syntax-ns#"
   xmlns:svg="http://www.w3.org/2000/svg"
   xmlns="http://www.w3.org/2000/svg"
   xmlns:sodipodi="http://sodipodi.sourceforge.net/DTD/sodipodi-0.dtd"
   xmlns:inkscape="http://www.inkscape.org/namespaces/inkscape"
   viewBox="0 0 503.32614 503.78723"
   height="503.78723"
   width="503.32614"
   xml:space="preserve"
   id="svg2"
   version="1.1"
   sodipodi:docname="panda-seeklogo.com.svg"
   inkscape:version="0.92.4 (5da689c313, 2019-01-14)"><sodipodi:namedview
   pagecolor="#ffffff"
   bordercolor="#666666"
   borderopacity="1"
   objecttolerance="10"
   gridtolerance="10"
   guidetolerance="10"
   inkscape:pageopacity="0"
   inkscape:pageshadow="2"
   inkscape:window-width="1479"
   inkscape:window-height="942"
   id="namedview26"
   showgrid="false"
   inkscape:zoom="0.26893156"
   inkscape:cx="200.96259"
   inkscape:cy="65.009967"
   inkscape:window-x="0"
   inkscape:window-y="0"
   inkscape:window-maximized="0"
   inkscape:current-layer="svg2" />
    <metadata
   id="metadata8">
        <rdf:RDF>
            <cc:Work
   rdf:about="">
                <dc:format>image/svg+xml</dc:format>
                <dc:type
   rdf:resource="http://purl.org/dc/dcmitype/StillImage" />
            </cc:Work>
        </rdf:RDF>
    </metadata>
    <defs
   id="defs6" />
    <g
   transform="matrix(1.3333333,0,0,-1.3333333,-101.3974,877.5506)"
   id="g10">
        <g
   transform="scale(0.1)"
   id="g12">
			<path
   id="path80"
   style="fill:#231f20;fill-opacity:1;fill-rule:evenodd;stroke:none"
   d="m 2594.87,4992.73 c 28.97,3.58 60.04,4.05 88.17,-2.51 43.5,-10.19 74.19,-40.26 81.19,-85.39 2.6,-16.76 -9.91,-35.85 -15.53,-53.87 -7.73,14.77 -13.36,31.26 -23.72,43.9 -17.17,21 -34.08,49.85 -56.94,57.18 -69.27,22.16 -148.53,-23.97 -175.75,-93.13 -5.32,-13.53 -15.61,-25.12 -23.62,-37.6 -21.45,83.89 41.77,160.97 126.2,171.42 z m -397.04,-463.82 c 144.89,-84.53 309.25,-104.26 447.61,-18.61 217.14,134.35 372.86,322.99 362.27,604.28 -5.47,145.09 -72.17,252.67 -209.12,305.58 -91.4,35.33 -189.26,48.08 -275.92,-6.19 -67.1,-42.01 -127.91,-97.07 -183.26,-154.32 -136.34,-140.96 -234.63,-301.75 -233.66,-506.95 0.57,-126.23 18.58,-180.91 92.08,-223.79"
   inkscape:connector-curvature="0" />
            <path
   id="path82"
   style="fill:#231f20;fill-opacity:1;fill-rule:evenodd;stroke:none"
   d="m 3202.67,4489.8 c -6.73,1.69 -14.65,0.92 -20.35,4.2 -28.44,16.45 -43.06,3.13 -58.08,-21.23 -32.73,-53.03 -77.93,-86.91 -143.86,-89.85 -35.38,-1.57 -56,9.34 -64.35,44.72 -3.74,15.74 -13.03,30.16 -25.06,56.85 -19.11,-96.36 20,-147.32 97.73,-132.3 54.11,10.45 109.32,34.69 154.22,66.58 31.21,22.19 54.34,33.56 92.15,27.08 28.06,-4.8 59.84,-1.09 87.37,7.3 47.74,14.56 61.57,67.85 25.82,97.86 -44.44,-80.91 -53.12,-84.38 -145.59,-61.21"
   inkscape:connector-curvature="0" />
            <path
   id="path84"
   style="fill:#231f20;fill-opacity:1;fill-rule:evenodd;stroke:none"
   d="m 3265.66,4703.38 c -42.53,2.85 -73.43,-67.81 -111.43,3.32 36.83,23.91 68.38,41.2 111.43,-3.32 z m -259.4,-84.47 c 47.69,-19.1 96.74,-34.82 122.68,-43.95 86.13,-1.23 109.99,48.9 139.36,86.65 13.45,17.28 22.03,57.03 11.87,69.47 -13.9,17 -52.44,30.37 -72.25,23.08 -70.92,-26.03 -139.04,-60.15 -206.89,-93.93 -27.95,-13.9 -15.33,-33.06 5.23,-41.32"
   inkscape:connector-curvature="0" />
            <path
   id="path86"
   style="fill:#231f20;fill-opacity:1;fill-rule:evenodd;stroke:none"
   d="m 4431.72,3869.32 c -21.33,-0.19 -48.73,9.79 -62.71,25.1 -17.34,19.02 5.94,54.27 52.3,72.95 7.69,-5.51 25.8,-12.36 33.66,-25.36 14.44,-23.94 -1.07,-72.5 -23.25,-72.69 z m -139.11,118.36 c -1.07,-39.38 -37.49,-70.84 -76.89,-69.28 -40.58,1.58 -70.87,31.79 -69.19,68.93 1.92,42.11 38.79,70.7 87.5,69.11 45.3,-1.48 59.62,-29.63 58.58,-68.76 z m -80.13,-493.47 c -0.57,-5.12 -14.94,-58.95 -35.39,-63.4 -21.64,-4.69 -49.45,40.31 -51.53,46.35 -16.53,48.25 -23.71,100.25 -29.05,151.31 -1.1,10.5 20.65,30.58 34.81,33.98 19.31,4.63 60.59,14.51 85,6.3 13.13,-4.43 19.31,-25.81 19.16,-29.62 -1.87,-50.41 -17.75,-98.74 -23,-144.92 z m -175.03,528.21 c -26.47,9.95 -55.6,35.36 -65.6,60.97 -12.4,31.81 33.24,64.31 99.51,65.31 6.9,-10.48 26.03,-27.59 29.54,-47.46 6.45,-36.49 -35.92,-89.17 -63.45,-78.82 z m -207,-661.45 c -7.53,-11.47 -15.5,-24.98 -26.76,-31.2 -78.98,-43.55 -158.88,-85.44 -238.51,-127.81 -4.58,-2.42 -9.44,-4.45 -14.33,-6.21 -119.12,-42.44 -143.69,-25.39 -157.46,98.28 -10.35,92.93 -20.4,186.82 -42.78,277.25 -35.54,143.62 -192.17,219.37 -333.16,171.57 -20.1,-6.82 -48.72,-8.34 -66.5,0.91 -141.25,73.52 -262,58.28 -374.07,-56.21 -27.09,-27.64 -51.6,-38.29 -90,-34.11 -31.87,3.46 -66.76,-0.6 -97.41,-10.43 -76.43,-24.5 -113.22,-95.79 -96.56,-196.01 10.12,-60.9 32.82,-119.75 50.43,-179.35 14.53,-49.16 29.85,-98.07 44.82,-147.11 -5,-3.58 -10.03,-7.15 -15.03,-10.75 -116.75,52.76 -233.76,104.93 -349.86,159.09 -13.02,6.05 -29.27,23 -29.76,35.43 -5.29,136.68 3.75,271.41 73.72,394.01 11.93,20.96 26.07,42.44 44.38,57.25 9.55,7.75 39.74,7.67 44.52,0.45 18.75,-28.27 36.41,-17.8 57.62,-6.75 47.65,24.86 94.44,52.18 144.16,72 50.13,19.98 100.76,22.03 146.67,-18.59 9.8,-8.68 36.99,-8.16 49.92,-0.84 34.6,19.52 66.83,43.73 98.09,68.49 47.83,37.89 98.16,65.02 162.3,57.45 14.08,-1.66 31.9,1.97 43.53,9.8 173.37,116.37 357.96,102.13 545.72,47.71 31.46,-9.09 63,-21.42 90.94,-38.21 59.36,-35.67 117.6,-60.22 190.58,-67.98 48.36,-5.14 100.39,-59.59 133.89,-104.55 87.3,-117.27 87.63,-296.85 10.9,-413.58 z m -684.4,76.62 c -49.84,0.43 -86.69,32.03 -87.23,74.82 -0.72,53.93 29.15,87.69 78.8,89.07 51.77,1.42 113.3,-42.7 112.23,-80.48 -1.25,-42.73 -52.41,-83.88 -103.8,-83.41 z m -435.19,83.42 c 0.9,46.32 39.11,76.91 94.05,75.33 37.37,-1.07 50.21,-20.33 49.5,-74.17 -0.71,-53.98 -19.18,-76.63 -62.65,-76.91 -48.88,-0.27 -81.78,30.53 -80.9,75.75 z m 380.12,-379.63 c -0.41,-116.7 -23.69,-148.85 -137.6,-151.02 -64.1,-1.21 -130.06,16.64 -192.57,34.86 -52.13,15.16 -83.64,55.88 -81.38,114.11 2.34,60.44 38.77,97.1 93.28,111.62 59.86,15.91 121.72,24.18 182.71,35.8 130.31,-8.15 136.02,-13.97 135.56,-145.37 z m -529.76,300.72 c -2.97,-68.69 -35.47,-123.73 -60.8,-108.5 -32.09,19.34 -62.75,53.28 -76.1,87.83 -11.5,29.89 49.63,67.86 94.74,68.66 40.36,0.74 46.02,-21.49 42.16,-47.99 z M 1554.16,4454.29 c -34.08,52.96 -76.93,100.29 -115.89,150.11 -14.51,18.55 -29.35,36.81 -54.01,67.68 59.25,-9.91 102.16,-19.3 145.53,-23.13 15.31,-1.36 40.6,7.05 45.41,17.99 5.11,11.66 -3.6,37.64 -14.87,46.97 -112.2,92.83 -149.54,217.12 -157.32,363.48 20.75,-1.06 38.78,-2.84 56.78,-2.72 69.36,0.4 139.46,-4.14 207.69,5.04 25.57,3.48 55.78,34.98 68.55,61.17 106.17,217.5 156.23,451.33 193.55,688.56 20.76,131.98 41.24,264.02 64.96,395.47 3.78,21.02 19.97,44.31 37.28,57.61 81.76,62.73 166.78,120.47 275.12,125.88 6.93,0.35 13.94,0.18 20.79,-0.68 3.12,-0.39 5.96,-3.05 15.09,-8.06 -8.22,-29.46 -17.82,-60.23 -25.3,-91.49 -15.18,-63.54 1.73,-78.75 64.9,-63.65 89.27,21.34 178.4,44.44 268.81,59.42 49.87,8.27 102.25,1.49 153.48,1.49 3.07,-5.9 6.14,-11.79 9.23,-17.68 -12.63,-22.95 -21.91,-48.74 -38.62,-68.2 -30.99,-36.11 -17.6,-63.6 11.68,-88.76 15.6,-13.4 33.61,-25.59 52.6,-33.21 225.79,-90.66 384.98,-258.01 519.37,-452.71 45,-65.22 82.86,-135.36 131.24,-215.22 -118.45,28.65 -199.45,-8.83 -256.88,-94.52 -73.54,-109.71 -100.76,-231.48 -54.57,-357.1 50.37,-136.95 148.37,-230.72 295.53,-259.71 45.88,-9.03 95.01,-1.4 145.71,-1.4 -13.83,-76.47 -38.1,-159.53 -99.37,-230.57 -129,-149.57 -297.75,-231.03 -485.36,-264.01 -211.61,-37.19 -426.31,-59.89 -640.62,-77.43 -131.09,-10.73 -265.89,-13.84 -395.49,4.58 -193.36,27.43 -338.99,140.01 -445,304.8 z M 930.293,5519.02 c -26.699,52.9 -25.105,133 -8.352,192.59 63.926,227.44 96.979,241.91 302.139,246.89 192.56,4.67 366.31,-63.95 539.83,-172.34 -55.89,-43.54 -103.87,-80.94 -151.87,-118.33 1.29,-5.91 2.6,-11.83 3.91,-17.75 37.22,-2.87 74.45,-5.74 120.95,-9.31 -46.68,-71.35 -90.71,-138.64 -137.08,-209.52 56.49,-35.25 82.12,26.2 125.72,31.59 21.87,-111.45 -12.46,-206.01 -76.53,-292.12 -7.84,-10.54 -26.61,-16.84 -40.9,-18.1 -295.05,-25.7 -524.95,63.45 -677.817,366.4 z M 3578.03,4964.27 c -9.2,7.41 -23.48,13.08 -26.81,22.57 -15.77,44.99 -46.04,70.8 -93.14,67.01 -52.33,-4.2 -88.33,-46.31 -97.35,-100.09 -2.37,-14.13 -14.05,-26.67 -21.47,-39.95 -7.82,11.35 -15.67,22.68 -18.59,26.92 0.99,80 55.46,139.36 125.99,147.76 71.7,8.55 123.11,-23.75 137.48,-88.47 2.43,-10.93 -3.86,-23.79 -6.11,-35.75 z m -214.07,1252.88 c 107.05,20.39 196.68,-7.19 269.72,-94.04 66.25,-78.77 137.21,-151.9 152.62,-260.5 15.63,-110.28 9.31,-211.77 -85.92,-288.87 -41.84,-33.87 -80.99,-71.07 -123.92,-109.02 -60.5,96.93 -126.15,202.12 -194.51,311.63 27.19,2.14 60.86,4.79 101.97,8.04 -34.37,88.58 -115.19,110.4 -181.56,148.95 37.65,45.53 29.99,82.89 -26.18,100.88 -47.23,15.15 -98.19,18.67 -154.69,28.6 60.42,87.51 142.68,135.33 242.47,154.33 z M 4519.84,4020.53 c -25.23,68.45 -69.46,111.23 -146.26,105.92 -19.92,82.6 -54.11,121.39 -115.82,123.91 -34.03,1.38 -68.4,-9.61 -102.74,-10.55 -21.5,-0.61 -51.97,-0.59 -63.41,12.38 -62.64,71.03 -181.71,48.73 -226.75,-32.88 -21.1,-38.24 -50.66,-71.84 -74.28,-104.63 -95.5,86.53 -184.19,166.89 -274.48,248.72 5.69,6.23 11.93,14.35 19.43,21.04 112.4,100.1 181.35,223.75 169.66,375.61 -7.89,102.43 -36.43,203.66 -60.41,304.32 -15.47,64.83 -39.42,127.63 -58.34,187.46 48.27,15.13 93.58,18.67 125.44,41.22 110.22,78.07 207.87,170.41 265.77,295.84 74.23,160.8 96.06,332.01 7.08,486.78 -153.4,266.77 -382.59,444.43 -694.52,492.15 -85.71,13.09 -180.88,30.51 -259.55,-20.43 -66.06,-42.8 -120.11,-103.98 -180.48,-155.85 -13.21,-11.34 -33.66,-28.18 -45.69,-24.72 -89.4,25.58 -175.42,6.09 -262.52,-11.07 -45.28,-8.91 -91.67,-12.18 -139.17,-18.2 12.9,59.91 24.25,112.52 36.86,171.07 -124.04,-1.3 -224.38,-35.76 -319.5,-88.42 -45.52,-25.17 -91.57,-73.03 -135.47,-70.93 -46.58,2.25 -91.66,50.42 -136.11,80.48 -159.63,107.98 -335.03,147.28 -520.94,98.63 -94.36,-24.7 -185.11,-69.85 -271.13,-117.31 -52.96,-29.23 -101.283,-74.48 -138.822,-122.6 -114.954,-147.43 -147.075,-323.75 -153.938,-504.81 -2.91,-76.84 -10.598,-161.66 16.426,-229.97 81.875,-207.08 255.034,-332.89 439.554,-442.16 24.9,-14.76 32.17,-27.33 35.35,-54.49 10.57,-90.2 25.81,-179.83 39.24,-269.58 -5.81,-11.63 -23.73,-30.83 -22.8,-49.11 1.72,-33.62 6.93,-71.41 24.11,-99.13 49.41,-79.62 102.85,-157.17 160.38,-231.11 21.6,-27.73 28.88,-48.44 12.84,-78.4 -21.35,-39.84 -43.69,-79.3 -62.41,-120.37 -40.93,-89.81 -86.56,-178.25 -118.12,-271.35 -61.36,-180.98 -96.88,-367.87 -58.09,-558.68 35.46,-174.4 117.73,-283.87 262.3,-296.68 101.56,-8.99 204.98,-6.68 306.8,0.99 43.96,3.3 95.03,23.21 126.56,52.87 41.54,39.1 77.64,35.2 121.5,18.62 71.27,-26.98 140.7,-61.74 214.24,-79.2 106.04,-25.18 192,-75.71 264.35,-156.04 45.76,-50.82 100.85,-91.05 171.45,-102.24 227.68,-36.12 446.91,-3.64 656.01,89.88 38.16,17.07 65.28,59.08 97.1,90.02 31.7,30.8 57.81,71.6 95.18,91.52 111.69,59.51 227.11,112.23 342.43,164.61 27.13,12.34 59.44,16.37 89.69,17.93 39.69,2.07 79.93,-5.39 119.57,-2.89 104.44,6.62 213.04,92.25 203.61,180.76 -17.49,163.94 29.19,283.73 172.12,373.37 67.93,42.57 74.91,121.19 46.7,197.7"
   inkscape:connector-curvature="0" />
            <path
   id="path88"
   style="fill:#ffffff;fill-opacity:1;fill-rule:evenodd;stroke:none"
   d="m 2343.38,5261.92 c 55.34,57.23 116.16,112.29 183.25,154.3 86.67,54.27 184.52,41.54 275.93,6.21 136.94,-52.92 203.64,-160.5 209.12,-305.6 10.58,-281.28 -145.14,-469.91 -362.27,-604.29 -138.37,-85.62 -302.72,-65.91 -447.61,18.63 -73.51,42.88 -91.52,97.56 -92.07,223.78 -0.98,205.21 97.3,366 233.65,506.97 z m 868.5,-505.49 c 19.82,7.28 58.34,-6.07 72.25,-23.09 10.16,-12.46 1.58,-52.19 -11.87,-69.49 -29.37,-37.71 -53.23,-87.86 -139.37,-86.64 -25.92,9.14 -74.98,24.86 -122.66,43.97 -20.54,8.24 -33.18,27.4 -5.22,41.32 67.84,33.75 135.97,67.88 206.87,93.93 z m 140.36,-203.16 c 35.75,-30 21.9,-83.29 -25.82,-97.86 -27.54,-8.39 -59.32,-12.09 -87.39,-7.3 -37.8,6.46 -60.93,-4.9 -92.14,-27.07 -44.91,-31.91 -100.11,-56.15 -154.21,-66.59 -77.76,-15.01 -116.86,35.94 -97.74,132.29 12.02,-26.67 21.34,-41.11 25.06,-56.83 8.35,-35.37 28.96,-46.29 64.36,-44.71 65.92,2.93 111.13,36.82 143.83,89.82 15.03,24.36 29.66,37.7 58.11,21.23 5.69,-3.28 13.6,-2.5 20.33,-4.2 92.48,-23.14 101.15,-19.68 145.61,61.22 z m -953.63,-406.11 c 214.3,17.55 429.02,40.26 640.65,77.44 187.59,32.98 356.34,114.45 485.34,264.02 61.26,71.02 85.56,154.09 99.36,230.55 -50.68,0 -99.82,-7.62 -145.7,1.42 -147.16,28.98 -245.17,122.75 -295.53,259.71 -46.2,125.59 -18.96,247.38 54.56,357.1 57.45,85.69 138.43,123.17 256.89,94.51 -48.38,79.85 -86.24,150.01 -131.24,215.22 -134.39,194.71 -293.56,362.05 -519.38,452.72 -18.97,7.61 -36.99,19.8 -52.58,33.2 -29.29,25.16 -42.68,52.66 -11.69,88.77 16.7,19.45 25.99,45.25 38.62,68.18 -3.1,5.9 -6.16,11.79 -9.25,17.68 -51.23,0 -103.58,6.79 -153.46,-1.47 -90.41,-14.99 -179.54,-38.08 -268.79,-59.43 -63.2,-15.1 -80.09,0.11 -64.92,63.65 7.48,31.27 17.07,62.03 25.31,91.48 -9.13,5.02 -11.97,7.68 -15.11,8.07 -6.84,0.86 -13.86,1.03 -20.76,0.68 -108.36,-5.41 -193.38,-63.15 -275.13,-125.88 -17.32,-13.29 -33.51,-36.59 -37.29,-57.62 -23.72,-131.43 -44.21,-263.48 -64.97,-395.46 -37.31,-237.22 -87.38,-471.06 -193.54,-688.55 -12.78,-26.19 -42.99,-57.71 -68.55,-61.17 -68.23,-9.18 -138.32,-4.65 -207.69,-5.05 -18,-0.11 -36.04,1.67 -56.78,2.71 7.78,-146.34 45.11,-270.64 157.31,-363.45 11.28,-9.33 19.99,-35.33 14.87,-46.99 -4.79,-10.95 -30.08,-19.35 -45.4,-18 -43.38,3.84 -86.28,13.25 -145.54,23.14 24.66,-30.86 39.51,-49.13 54.02,-67.68 38.95,-49.8 81.81,-97.14 115.89,-150.11 106,-164.79 251.65,-277.37 445,-304.81 129.6,-18.41 264.41,-15.29 395.48,-4.58"
   inkscape:connector-curvature="0" />
            <path
   id="path90"
   style="fill:#ffffff;fill-opacity:1;fill-rule:evenodd;stroke:none"
   d="m 3689.64,3881.35 c -73,7.77 -131.23,32.33 -190.61,67.99 -27.92,16.8 -59.47,29.12 -90.9,38.22 -187.78,54.41 -372.37,68.65 -545.74,-47.73 -11.65,-7.82 -29.44,-11.45 -43.53,-9.8 -64.13,7.56 -114.46,-19.55 -162.32,-57.45 -31.25,-24.75 -63.47,-48.95 -98.06,-68.48 -12.94,-7.32 -40.13,-7.84 -49.93,0.84 -45.89,40.62 -96.56,38.57 -146.66,18.59 -49.73,-19.83 -96.54,-47.16 -144.18,-72 -21.21,-11.04 -38.86,-21.53 -57.61,6.76 -4.78,7.22 -34.97,7.28 -44.53,-0.45 -18.3,-14.83 -32.44,-36.31 -44.39,-57.25 -69.95,-122.6 -78.98,-257.36 -73.7,-394.02 0.5,-12.44 16.75,-29.37 29.77,-35.45 116.09,-54.14 233.1,-106.31 349.84,-159.06 5.02,3.59 10.03,7.17 15.05,10.74 -14.96,49.03 -30.29,97.95 -44.83,147.09 -17.59,59.63 -40.31,118.46 -50.43,179.38 -16.66,100.21 20.14,171.49 96.58,195.99 30.64,9.83 65.52,13.89 97.38,10.44 38.41,-4.17 62.94,6.46 90.01,34.11 112.06,114.47 232.81,129.73 374.06,56.21 17.79,-9.26 46.41,-7.73 66.53,-0.93 140.96,47.81 297.59,-27.94 333.14,-171.56 22.38,-90.44 32.43,-184.3 42.79,-277.23 13.77,-123.67 38.31,-140.72 157.44,-98.28 4.92,1.75 9.76,3.79 14.33,6.21 79.65,42.36 159.54,84.26 238.53,127.81 11.26,6.21 19.23,19.73 26.75,31.17 76.74,116.74 76.41,296.34 -10.9,413.61 -33.5,44.95 -85.52,99.39 -133.88,104.53"
   inkscape:connector-curvature="0" />
            <path
   id="path92"
   style="fill:#ffffff;fill-opacity:1;fill-rule:evenodd;stroke:none"
   d="m 1612.06,5154.89 c 14.33,1.25 33.09,7.55 40.92,18.08 64.06,86.12 98.41,180.68 76.53,292.13 -43.59,-5.4 -69.22,-66.83 -125.72,-31.58 46.38,70.88 90.41,138.15 137.09,209.51 -46.5,3.58 -83.74,6.45 -120.97,9.31 -1.3,5.92 -2.61,11.84 -3.9,17.74 47.98,37.4 95.97,74.81 151.86,118.32 -173.5,108.42 -347.25,177.03 -539.82,172.35 -205.18,-4.98 -238.206,-19.44 -302.132,-246.88 -16.758,-59.59 -18.359,-139.69 8.328,-192.6 152.874,-302.94 382.784,-392.1 677.814,-366.38"
   inkscape:connector-curvature="0" />
            <path
   id="path94"
   style="fill:#ffffff;fill-opacity:1;fill-rule:evenodd;stroke:none"
   d="m 3306.34,5935.61 c 66.37,-38.56 147.19,-60.37 181.55,-148.97 -41.12,-3.24 -74.76,-5.89 -101.98,-8.02 68.37,-109.52 134.01,-214.71 194.5,-311.64 42.95,37.95 82.11,75.14 123.94,109.02 95.23,77.1 101.56,178.59 85.91,288.87 -15.39,108.59 -86.34,181.74 -152.6,260.5 -73.05,86.86 -162.69,114.43 -269.75,94.04 -99.77,-19 -182.03,-66.83 -242.43,-154.33 56.46,-9.92 107.43,-13.45 154.68,-28.59 56.16,-18.01 63.81,-55.35 26.18,-100.88"
   inkscape:connector-curvature="0" />
            <path
   id="path96"
   style="fill:#ffffff;fill-opacity:1;fill-rule:evenodd;stroke:none"
   d="m 2959.39,3289.01 c -61,-11.62 -122.87,-19.9 -182.71,-35.82 -54.51,-14.51 -90.96,-51.15 -93.29,-111.6 -2.25,-58.24 29.27,-98.96 81.4,-114.12 62.5,-18.18 128.45,-36.05 192.56,-34.84 113.9,2.14 137.19,34.31 137.59,151.01 0.45,131.39 -5.24,137.23 -135.55,145.37"
   inkscape:connector-curvature="0" />
            <path
   id="path98"
   style="fill:#ffffff;fill-opacity:1;fill-rule:evenodd;stroke:none"
   d="m 3141.6,3603.73 c -49.66,-1.37 -79.52,-35.11 -78.83,-89.05 0.57,-42.8 37.42,-74.4 87.26,-74.83 51.39,-0.45 102.54,40.67 103.79,83.39 1.07,37.8 -60.46,81.94 -112.22,80.49"
   inkscape:connector-curvature="0" />
            <path
   id="path100"
   style="fill:#ffffff;fill-opacity:1;fill-rule:evenodd;stroke:none"
   d="m 2795.72,3447.53 c 43.5,0.25 61.97,22.93 62.67,76.92 0.7,53.82 -12.14,73.08 -49.5,74.17 -54.93,1.58 -93.17,-29.04 -94.07,-75.34 -0.86,-45.24 32.03,-76.03 80.9,-75.75"
   inkscape:connector-curvature="0" />
            <path
   id="path102"
   style="fill:#ffffff;fill-opacity:1;fill-rule:evenodd;stroke:none"
   d="m 2523.04,3492.37 c -45.13,-0.8 -106.26,-38.81 -94.74,-68.67 13.33,-34.57 43.99,-68.5 76.1,-87.83 25.33,-15.24 57.84,39.8 60.8,108.47 3.84,26.51 -1.82,48.75 -42.16,48.03"
   inkscape:connector-curvature="0" />
            <path
   id="path104"
   style="fill:#ffffff;fill-opacity:1;fill-rule:evenodd;stroke:none"
   d="m 4238.01,4058.7 c -48.73,1.58 -85.6,-27.02 -87.5,-69.11 -1.69,-37.14 28.61,-67.35 69.19,-68.93 39.39,-1.56 75.82,29.89 76.88,69.27 1.05,39.15 -13.28,67.28 -58.57,68.77"
   inkscape:connector-curvature="0" />
            <path
   id="path106"
   style="fill:#ffffff;fill-opacity:1;fill-rule:evenodd;stroke:none"
   d="m 3450.63,5090.75 c -70.54,-8.4 -125,-67.76 -126,-147.76 2.93,-4.24 10.77,-15.56 18.6,-26.91 7.42,13.28 19.11,25.82 21.48,39.94 9,53.78 45.02,95.89 97.34,100.1 47.1,3.78 77.37,-22.03 93.16,-67.01 3.32,-9.52 17.57,-15.17 26.79,-22.58 2.27,11.96 8.54,24.82 6.11,35.74 -14.38,64.73 -65.79,97.03 -137.48,88.48"
   inkscape:connector-curvature="0" />
            <path
   id="path108"
   style="fill:#ffffff;fill-opacity:1;fill-rule:evenodd;stroke:none"
   d="m 4104.87,4103.5 c -3.51,19.86 -22.63,36.98 -29.54,47.45 -66.26,-1 -111.9,-33.49 -99.5,-65.29 9.99,-25.63 39.11,-51.05 65.61,-61 27.52,-10.32 69.88,42.35 63.43,78.84"
   inkscape:connector-curvature="0" />
            <path
   id="path110"
   style="fill:#ffffff;fill-opacity:1;fill-rule:evenodd;stroke:none"
   d="m 2496.27,4861.17 c 27.23,69.17 106.46,115.29 175.74,93.11 22.85,-7.32 39.78,-36.15 56.95,-57.16 10.34,-12.64 15.98,-29.14 23.72,-43.9 5.61,18.01 18.13,37.12 15.52,53.87 -7.01,45.12 -37.68,75.21 -81.2,85.38 -28.12,6.58 -59.18,6.11 -88.15,2.51 -84.44,-10.44 -147.66,-87.53 -126.19,-171.4 8,12.47 18.29,24.05 23.61,37.59"
   inkscape:connector-curvature="0" />
            <path
   id="path112"
   style="fill:#ffffff;fill-opacity:1;fill-rule:evenodd;stroke:none"
   d="m 3269.63,4706.08 c -43.05,44.49 -74.59,27.21 -111.44,3.3 38.01,-71.11 68.91,-0.49 111.44,-3.3"
   inkscape:connector-curvature="0" />
            <path
   id="path114"
   style="fill:#ffffff;fill-opacity:1;fill-rule:evenodd;stroke:none"
   d="m 4459.11,3944.26 c -7.84,13.01 -25.97,19.87 -33.66,25.37 -46.36,-18.68 -69.63,-53.93 -52.3,-72.95 13.99,-15.33 41.37,-25.29 62.72,-25.1 22.18,0.19 37.67,48.75 23.24,72.68"
   inkscape:connector-curvature="0" />
            <path
   id="path116"
   style="fill:#ffffff;fill-opacity:1;fill-rule:evenodd;stroke:none"
   d="m 4216.79,3670.13 c -24.4,8.22 -65.68,-1.65 -84.98,-6.29 -14.16,-3.4 -35.91,-23.48 -34.82,-33.98 5.36,-51.07 12.52,-103.08 29.05,-151.32 2.08,-6.03 29.89,-51.01 51.54,-46.32 20.45,4.43 34.82,58.28 35.4,63.37 5.24,46.19 21.12,94.53 23,144.92 0.14,3.82 -6.05,25.21 -19.19,29.62"
   inkscape:connector-curvature="0" />
        </g>
    </g>
</svg>